<svg xmlns="http://www.w3.org/2000/svg" xmlns:xlink="http://www.w3.org/1999/xlink" width="495" height="2313.08"><symbol id="accredited" viewBox="0 0 55.42 24.28"><defs><style>.cls-1{fill:#fff}</style></defs><path class="cls-1" d="M5.73 29.48l1.93-5.13h1.11l1.93 5.13H9.57l-.35-.88H7.15l-.31.88zm2.49-3.83l-.71 2h1.41l-.71-2zM13.47 24.24a2.37 2.37 0 012.49 2h-1.13a1.3 1.3 0 00-1.36-1c-.94 0-1.47.65-1.47 1.66s.53 1.66 1.47 1.66a1.32 1.32 0 001.36-1H16a2.39 2.39 0 01-2.49 2 2.67 2.67 0 010-5.33zM19.16 24.24a2.37 2.37 0 012.49 2h-1.13a1.3 1.3 0 00-1.36-1c-.94 0-1.47.65-1.47 1.66s.53 1.66 1.47 1.66a1.32 1.32 0 001.36-1h1.13a2.39 2.39 0 01-2.49 2 2.67 2.67 0 010-5.33zM25.3 29.48l-1-1.94h-1v1.94h-1v-5.13h2.3a1.52 1.52 0 011.7 1.33 2.44 2.44 0 010 .27 1.51 1.51 0 01-.91 1.47l1.12 2.06zm-.7-4.16h-1.27v1.25h1.27a.58.58 0 00.65-.5.45.45 0 000-.11.6.6 0 00-.54-.65zM31 29.48h-3.72v-5.13H31v1h-2.67v1.08h2.53v1h-2.53v1.15H31zM32 29.48v-5.13h1.84a2.57 2.57 0 01.32 5.13H32zm1.81-4.16h-.76v3.19h.76a1.45 1.45 0 001.61-1.26 1.3 1.3 0 000-.34 1.46 1.46 0 00-1.29-1.6 1.22 1.22 0 00-.31.01zM38.3 29.48h-1.08v-5.13h1.05zM42.81 25.34H41.4v4.14h-1v-4.14h-1.46v-1h3.87zM46.9 29.48h-3.68v-5.13h3.69v1h-2.69v1.08h2.53v1h-2.53v1.15h2.64zM47.75 29.48v-5.13h1.84a2.57 2.57 0 01.32 5.13h-2.16zm1.81-4.16h-.76v3.19h.76a1.45 1.45 0 001.65-1.22 1.63 1.63 0 000-.38 1.45 1.45 0 00-1.29-1.6 1.15 1.15 0 00-.36.01z" transform="translate(-5.22 -5.28)"/><path class="cls-1" d="M51.04 4.38v4.38l4.38 4.38V4.38h-4.38zM51.04 0h-8.76l4.38 4.38h4.38V0z"/><path class="cls-1" d="M51.04 0h4.38v4.38h-4.38z"/><path class="cls-1" d="M5.22 22.21l4-10.75h2.33l4 10.75h-2.33l-.65-1.85H8.22l-.65 1.85zm5.16-8L8.9 18.4h3l-1.48-4.19z" transform="translate(-5.22 -5.28)"/><path class="cls-1" d="M15.15 22.21l4-10.75h2.33l4 10.75h-2.26l-.65-1.85h-4.45l-.65 1.85zm5.16-8l-1.48 4.19h3l-1.48-4.19zM41.84 19.21c0-2.12-5.75-.45-5.75-4.66 0-1.82 1.44-3.31 3.92-3.31a3.67 3.67 0 014 3.36 1.79 1.79 0 010 .23h-2.17a1.68 1.68 0 00-1.73-1.63H40c-1 0-1.71.51-1.71 1.21 0 2.15 5.81.45 5.81 4.72 0 1.92-1.7 3.28-4.25 3.28-3 0-4.09-1.85-4.15-3.62h2.18c.06.88.7 1.65 2.09 1.65 1.16.01 1.87-.44 1.87-1.23zM44.81 22.21V11.46h4.54c2.47 0 3.57 1.32 3.57 3a2.5 2.5 0 01-1.5 2.34 2.47 2.47 0 011.65 2.38c0 1.85-1.2 3-3.53 3zM47 13.47v2.33h2.38c.85 0 1.36-.39 1.36-1.17s-.39-1.17-1.36-1.17zm0 4.3v2.45h2.53c.94 0 1.36-.47 1.36-1.23s-.43-1.19-1.36-1.19zM33 18.8a2.8 2.8 0 01-2.63 1.5c-2 0-3.07-1.36-3.07-3.48s1.1-3.48 3.07-3.48a2.7 2.7 0 012.85 2.1h2.35a5 5 0 00-5.21-4.21 5.26 5.26 0 00-5.4 5.13v.44a5.26 5.26 0 004.95 5.57h.45a5 5 0 005.07-3.58z" transform="translate(-5.22 -5.28)"/></symbol><use xlink:href="#accredited" width="55.42" height="24.28"/><symbol id="arrow-alt" viewBox="0 0 100 100"><path d="M28.8 51l36-29.5v59z"/></symbol><use xlink:href="#arrow-alt" y="26.28" width="100" height="100"/><symbol id="arrow-down" viewBox="0 0 16.4 10"><path d="M8.2 10L0 0h16.4z"/></symbol><use xlink:href="#arrow-down" y="128.28" width="16.4" height="10"/><symbol id="arrow-next" viewBox="0 0 37 21"><path d="M33.2 9.5L25 1.4 26.4 0 37 10.5 26.4 21 25 19.6l8.2-8.1H0v-2z"/></symbol><use xlink:href="#arrow-next" y="140.28" width="37" height="21"/><symbol id="arrow-prev" viewBox="0 0 37 21"><path d="M3.8 9.5L12 1.4 10.6 0 0 10.5 10.6 21l1.4-1.4-8.2-8.1H37v-2z"/></symbol><use xlink:href="#arrow-prev" y="163.28" width="37" height="21"/><symbol id="arrow" viewBox="0 0 10 17"><path d="M10 8.2L0 16.4V0z"/></symbol><use xlink:href="#arrow" y="186.28" width="10" height="17"/><symbol id="bullseye" viewBox="0 0 152.7 107.8"><path fill="#FFF" d="M53.9 86.9c-18.2 0-33-14.8-33-33s14.8-33 33-33 33 14.8 33 33-14.8 33-33 33zm0-62c-16 0-29 13-29 29s13 29 29 29 29-13 29-29-13-29-29-29z"/><path fill="#FFF" d="M53.9 107.8C24.2 107.8 0 83.6 0 53.9S24.2 0 53.9 0s53.9 24.2 53.9 53.9h-4C103.8 26.4 81.4 4 53.9 4S4 26.4 4 53.9s22.4 49.9 49.9 49.9c22.1 0 41.3-14.2 47.8-35.3l3.8 1.2c-7 22.8-27.7 38.1-51.6 38.1z"/><path fill="#C99700" d="M120.7 71.2h32L135.5 54l15.7-16.3-31.4.4-13.7 13.7H66.2c-1-5.9-6.1-10.5-12.3-10.5-6.9 0-12.5 5.6-12.5 12.5S47 66.4 53.9 66.4c6.2 0 11.4-4.6 12.3-10.5h39.2l15.3 15.3zm-66.8-8.8c-4.7 0-8.5-3.8-8.5-8.5s3.8-8.5 8.5-8.5 8.5 3.8 8.5 8.5-3.8 8.5-8.5 8.5zm57.2-6.5h10.4l11.3 11.3h-10.4l-11.3-11.3zm32 11.3h-4.7l-11.3-11.3h4.7l11.3 11.3zM132 51.9h-5.2l10-10 4.9-.1-9.7 10.1zm-10.4-9.8l9.5-.1-9.9 9.9h-9.4l9.8-9.8z"/></symbol><use xlink:href="#bullseye" y="205.28" width="152.7" height="107.8"/><symbol id="circle-arrow" viewBox="0 0 68 68"><g id="Landing" stroke="none" stroke-width="1" fill="none" fill-rule="evenodd"><g id="Research-&amp;-Faculty" transform="translate(-119 -4069)"><circle id="Oval" stroke="#C99700" cx="153" cy="4103" r="33"/><g id="noun_Arrow_1821822-Copy" transform="translate(135 4093)" fill="#C99700" fill-rule="nonzero"><path id="Shape" d="M33.214 9.52l-8.202-8.132L26.412 0 37 10.5 26.412 21l-1.4-1.388 8.202-8.131H0V9.519z"/></g></g></g></symbol><use xlink:href="#circle-arrow" y="315.08" width="68" height="68"/><symbol id="close" viewBox="0 0 19 19"><path transform="rotate(-45.001 9.556 9.557)" d="M8.6-2h2v23.1h-2z"/><path transform="rotate(-45.001 9.556 9.557)" d="M-2 8.6h23.1v2H-2z"/></symbol><use xlink:href="#close" y="385.08" width="19" height="19"/><symbol id="facebook" viewBox="0 0 20 20"><path d="M18.9 0H1.1C.5 0 0 .5 0 1.1v17.8c0 .6.5 1.1 1.1 1.1h9.6v-7.7H8.1v-3h2.6V7c0-2.6 1.6-4 3.9-4 1.1 0 2.1.1 2.3.1v2.7h-1.6c-1.3 0-1.5.6-1.5 1.5v1.9h3l-.4 3h-2.6V20h5.1c.6 0 1.1-.5 1.1-1.1V1.1c0-.6-.5-1.1-1.1-1.1z"/></symbol><use xlink:href="#facebook" y="406.08" width="20" height="20"/><symbol id="flag_2" viewBox="0 0 149.4 149.8"><path fill="#5AABBC" d="M28.4 54.1h-5v-3.4h5v3.4zm0-23.6h-5v3.4h5v-3.4zm0 10.2h-5v3.4h5v-3.4zm0 19h-5v3.4h5v-3.4zm10-9h-5v3.4h5v-3.4zm0-20.2h-5v3.4h5v-3.4zm0 10.2h-5v3.4h5v-3.4zm0 19h-5v3.4h5v-3.4zm10-9h-5v3.4h5v-3.4zm0-20.2h-5v3.4h5v-3.4zm0 10.2h-5v3.4h5v-3.4zm0 19h-5v3.4h5v-3.4zm10-9h-5v3.4h5v-3.4zm0-20.2h-5v3.4h5v-3.4zm0 10.2h-5v3.4h5v-3.4zm0 19h-5v3.4h5v-3.4z"/><path fill="#FFF" d="M149.4 20.8H20.5c2.3-2.2 3.7-5.3 3.7-8.7C24.2 5.4 18.8 0 12.1 0S0 5.4 0 12.1c0 4.2 2.2 7.9 5.4 10.1v127.6h4V23.9c.9.2 1.7.3 2.7.3 1 0 2-.1 3-.4v126h4v-27.7h130.3V20.8zm-4 16H67.8v-12h77.7v12zM63.8 69.1H19.1V24.8h44.7v44.3zM19.1 89.3h126.3v12.2H19.1V89.3zm0-4V73.1h126.3v12.2H19.1zm48.7-16.2V56.9h77.7v12.2H67.8zm0-16.2V40.8h77.7V53H67.8zM4.1 12.1c0-4.4 3.6-7.9 7.9-7.9s8 3.5 8 7.9-3.5 7.9-7.9 7.9-8-3.5-8-7.9zm15 106v-12.7h126.3v12.7H19.1z"/></symbol><use xlink:href="#flag_2" y="428.08" width="149.4" height="149.8"/><symbol id="footer-logo" viewBox="0 0 211 50"><path id="Fill-1" d="M60.5 28.7c0 .7 0 3.7.1 4.2-.2.3-.5.4-.8.3-.4-.5-1.1-1.3-2.8-3.3l-5.6-6.4c-1.6-1.8-2.3-2.7-2.7-3-.1 0-.1.3-.1 1.5v4.7c0 1.8 0 4 .4 4.7.2.4.6.5 1.2.6l.5.1c.2.2.2.6 0 .7-.9 0-1.8-.1-2.7-.1-1 0-1.7 0-2.5.1-.2-.1-.2-.5 0-.7l.5-.1c.5-.1.9-.2 1.1-.6.3-.7.3-2.8.3-4.7V21c0-1.9 0-2.3-.8-3-.3-.2-.9-.4-1.3-.5l-.4-.1c-.2-.1-.1-.6.1-.7.9.1 2.2.1 2.8.1.5 0 1.1 0 1.7-.1.4 1 3 4.1 3.9 5l2.4 2.6c1 1.1 3.2 3.7 3.5 3.8.1-.1.1-.2.1-.6V23c0-1.8 0-4-.5-4.7-.2-.4-.6-.5-1.2-.6l-.7-.1c-.2-.2-.2-.6 0-.7.9 0 1.8.1 2.8.1 1 0 1.7 0 2.5-.1.2.1.2.5 0 .7l-.6.1c-.5.1-.9.2-1 .5-.3.7-.3 2.8-.3 4.7v5.8"/><path id="Fill-2" d="M72.7 16.6c-5.1 0-8.6 3.6-8.6 8.5 0 4.3 3.1 8.1 8.6 8.1 4.9 0 8.5-3.5 8.5-8.3-.1-4.3-3-8.3-8.5-8.3zm-.3.9c3.8 0 5.5 4.2 5.5 7.8 0 4.8-2.2 6.9-5 6.9-4.1 0-5.5-4.5-5.5-7.8-.1-5.1 2.6-6.9 5-6.9z"/><path id="Fill-3" d="M88.6 19c0-1 0-1.1-.6-1.1h-.7c-2.2 0-2.9.3-3.7 2.2-.2.1-.7.1-.8-.2.4-1.3.8-2.8.9-3.6 0-.1.1-.1.3-.1.1 0 .2 0 .2.1.1.6.5.6 2.1.6h8.5c1.2 0 1.5-.1 1.8-.6.1 0 .2-.1.3-.1.1 0 .3 0 .3.1-.2 1-.4 3.1-.4 3.8-.1.2-.5.2-.7.1-.3-1.9-.8-2.3-3.3-2.3H92c-.6 0-.7 0-.7 1.1v10.4c0 2.5.2 2.6 1.4 2.7l.9.1c.2.2.1.6 0 .7-1.4 0-2.5-.1-3.5-.1-1.1 0-2.2 0-3.7.1-.2-.1-.2-.6 0-.7l1-.1c1.1-.1 1.3-.2 1.3-2.7V19"/><path id="Fill-4" d="M101.5 29.4c0 2.5-.2 2.6-1.3 2.8l-.5.1c-.2.2-.1.6 0 .7 1.1 0 2.2-.1 3.2-.1 1.1 0 2.1 0 3.2.1.2-.1.2-.5 0-.7l-.5-.1c-1.1-.1-1.4-.2-1.4-2.8v-3.1c0-.5 0-.5.7-.5.8 0 1.1.1 1.5.8.6.9 1.3 2.3 1.9 3.3 1.5 2.2 2.7 3.2 5 3.2.8 0 1.3-.1 1.6-.1.1-.1.1-.4 0-.5-.3 0-1-.2-1.7-.7-1.1-.9-2.3-3-4.3-6.2-.1-.1-.1-.3 0-.4 1.2-.5 2.9-1.6 2.9-3.8 0-1.7-.9-2.9-2.1-3.5-1.1-.6-2.7-.8-4.6-.8-2 0-4 .1-5.5.2-.2.1-.2.5 0 .7l.6.1c1.1.1 1.2.4 1.2 2.7v8.6zm2.8-10.4c0-1.1 0-1.2 1.3-1.2 2.1 0 3.3 1.7 3.3 3.6 0 2.3-1.1 3.4-3.4 3.4-1.2 0-1.2 0-1.2-.8v-5z"/><path id="Fill-5" d="M119.1 20.4c0-2.6-.2-2.6-1.3-2.8l-.4-.1c-.2-.2-.1-.6.1-.7H125.2c1.5 0 2.9 0 3.2-.1.1.4.2 2.3.4 3.3-.1.2-.6.2-.8.1-.4-1.4-.7-2-1.5-2.2-.6-.2-1.3-.2-1.9-.2H123c-1 0-1 0-1 1.4v4.1c0 .6 0 .6.6.6h1.1c2.1 0 2.5 0 2.7-1.1l.2-.8c.2-.2.6-.2.8 0 0 .6-.1 1.5-.1 2.4 0 .9 0 1.8.1 2.5-.1.2-.6.2-.8 0l-.2-1c-.2-1-.6-1.1-2.7-1.1h-1.1c-.6 0-.6.1-.6.7v3.1c0 1.2 0 2.1.4 2.5.3.3.7.5 2.7.5 3.1 0 3.6-.7 4.4-2.6.2-.2.6-.1.8.1-.1 1-.7 2.8-1 3.5H120.7c-1.1 0-2.5 0-3.6.1-.2-.1-.2-.5 0-.7l.9-.1c1.1-.1 1.3-.2 1.3-2.7v-8.7"/><path id="Fill-6" d="M140.7 29.4c0 2.5-.2 2.6-1.3 2.8l-.5.1c-.2.2-.1.6.1.7 1.1 0 2.1-.1 3.1-.1.5 0 1 0 1.5.1.6 0 1.2.1 2 .1 2.2 0 4.3-.3 6-1.2 3-1.5 4.3-4.3 4.3-6.9 0-3.6-2.1-6.1-4.9-7.2-1.8-.6-3.4-.8-5.7-.8-2.4 0-4.3.1-6 .2-.2.1-.2.5 0 .7l.5.1c1.1.1 1.2.4 1.2 2.7v8.7zm2.8-9.4c0-1.1 0-1.6.2-1.8.2-.1.9-.3 1.9-.3 4 0 6.8 2.3 6.8 7.1 0 4.1-1.9 7.1-6.2 7.1-2.6 0-2.7-1.2-2.7-3.6V20z"/><path id="Fill-7" d="M164.8 26.9c.7 0 .7 0 1 .6l1.1 3.3c.3 1 .2 1.2-.6 1.3l-.5.1c-.1.2-.1.6.1.7.8 0 1.9-.1 2.9-.1 1.3 0 2.1 0 3.1.1.2-.1.2-.5 0-.7l-.4-.1c-1.2-.2-1.4-.4-1.9-2L166.1 20c-.4-1.1-.7-2.2-1.1-3.3-.1-.1-.2-.2-.4-.2-.1 0-.8 1-1.7 1.2.1.4-.1 1-.5 1.8l-3.3 8.6c-.5 1.3-.9 2.3-1.2 2.9-.4.8-.6 1-1.3 1.1l-.7.1c-.2.2-.1.6 0 .7.8 0 1.6-.1 2.4-.1 1 0 1.8 0 2.5.1.2-.1.2-.5 0-.7l-.7-.1c-.9-.1-1-.2-.5-1.6l1-2.9c.2-.6.2-.6.8-.6h3.4zm-2.8-1c-.6 0-.6 0-.4-.7l1-2.8c.4-1.1.6-1.7.7-1.9.1.2.3.6.7 1.9l1 2.9c.2.6.1.6-.6.6H162z"/><path id="Fill-8" d="M194 32.2c.2.1.2.6 0 .7-1 0-2-.1-2.9-.1-1.1 0-2.2 0-3.2.1-.2-.1-.3-.6-.1-.7l.7-.1c1-.1 1-.3 1-2v-9.8c-.7 1.3-1 2-1.4 3l-2.1 4.2c-.8 1.7-2 4.4-2.5 5.5-.1.1-.5.1-.6 0-.4-1.3-1.4-3.7-2-4.9l-2.1-4.6c-.5-1-1.1-2.5-1.4-3.2h-.1c0 1.2-.1 3.1-.1 4.1-.1 1.5-.1 3.6-.1 5.6 0 1.6 0 2 1.1 2.1l.8.1c.2.2.2.6 0 .7-.9 0-1.6-.1-2.5-.1-.8 0-1.6 0-2.6.1-.2-.1-.2-.6-.1-.7h.4c1.2-.1 1.3-.5 1.5-2 .2-1.5.2-3.1.4-5.6.1-1.6.2-3.6.2-5.1 0-1.1-.4-1.6-1.3-1.8l-.8-.1c-.1-.2-.1-.6.1-.7.7 0 1.4.1 2.3.1.8 0 1.7 0 2.6-.1.1 1.4.7 2.7 1.3 4l2.7 5.6 1.1 2.2c.4-.7.7-1.4 1.3-2.5l2.3-4.6c.8-1.6 1.5-3 1.9-4.6.7 0 1.5.1 2 .1 1 0 1.9 0 2.5-.1.3.1.3.6.1.7l-.8.1c-1.1.1-1.3.5-1.3 1.8 0 3.6 0 7.1.2 10.7.1 1.6.3 1.8 1.1 1.9h.4"/><path id="Fill-9" d="M199.1 20.4c0-2.6-.2-2.6-1.3-2.8l-.4-.1c-.2-.2-.1-.6 0-.7H205.1c1.5 0 2.9 0 3.2-.1.1.4.2 2.3.4 3.3-.1.2-.6.2-.8.1-.4-1.4-.7-2-1.5-2.2-.6-.2-1.3-.2-1.9-.2h-1.6c-1 0-1 0-1 1.4v4.1c0 .6 0 .6.6.6h1.2c2.1 0 2.5 0 2.7-1.1l.2-.8c.2-.2.6-.2.8 0 0 .6-.1 1.5-.1 2.4 0 .9 0 1.8.1 2.5-.1.2-.6.2-.8 0l-.2-1c-.2-1-.6-1.1-2.7-1.1h-1.2c-.6 0-.6.1-.6.7v3.1c0 1.2.1 2.1.4 2.5.3.3.7.5 2.7.5 3.1 0 3.6-.7 4.4-2.6.2-.2.6-.1.8.1-.1 1-.7 2.8-1 3.5H200.6c-1.1 0-2.5 0-3.6.1-.2-.1-.2-.5 0-.7l.9-.1c1.1-.1 1.3-.2 1.3-2.7v-8.7"/><path id="Fill-10" d="M46.4 3.6c0-1.5-.1-1.5-1-1.7l-.4-.1c-.1-.1-.1-.5 0-.5.7 0 1.4.1 2.1.1.7 0 1.4 0 2.2-.1.2.1.2.4 0 .5l-.4.1c-.9.2-1 .2-1 1.7v3.1c0 2.2.7 3.7 2.8 3.7 2 0 2.8-1.5 2.8-3.6v-2c0-2.2-.1-2.7-1.1-2.8l-.5-.1c-.1-.1-.1-.4 0-.5.7 0 1.2.1 1.8.1s1.1 0 1.8-.1c.2.1.2.4 0 .5l-.7.1c-.6.1-.7.7-.7 2.8V7c0 2.8-1.3 4.2-4.1 4.2-1.4 0-2.4-.3-3.1-.9-.7-.6-.9-1.7-.9-3.1V3.6"/><path id="Fill-11" d="M70.3 4.6c0-2.2-.1-2.7-.9-2.8l-.7-.1c-.2-.1-.1-.4 0-.5.8 0 1.3.1 1.9.1.6 0 1.1 0 1.8-.1.2.1.2.4 0 .5l-.6.1c-.6.1-.7.7-.7 2.8v3.7c0 .4 0 2.2.1 2.5-.1.1-.3.2-.5.2-.2-.3-.7-.8-2-2.2l-3.3-3.5c-.8-.9-1.4-1.4-1.7-1.7-.1 0-.1.2-.1.9v2.9c0 2.2.1 2.7.9 2.8l.7.1c.2.1.1.4 0 .5-.8 0-1.3-.1-1.9-.1-.6 0-1 0-1.8.1-.2-.1-.2-.4 0-.5l.7-.1c.6-.1.7-.7.7-2.8V3.5c0-.7 0-1-.5-1.3-.2-.1-.6-.3-.8-.3l-.3-.1c-.1-.1-.1-.5 0-.5.8.1 1.4.1 1.9.1.3 0 .6 0 .9-.1.4.8 1.2 1.8 2.1 2.7l2 2c.5.5 1.7 1.9 2 2 .1 0 .1-.4.1-.9V4.6"/><path id="Fill-12" d="M79.7 3.6c0-1.5-.1-1.6-1-1.7l-.4-.1c-.2-.1-.1-.5 0-.5.8 0 1.5.1 2.2.1.7 0 1.4 0 2.2-.1.2.1.2.4 0 .5l-.4.1c-.9.2-1 .2-1 1.7v4.9c0 1.5.1 1.6 1 1.7l.4.1c.2.1.1.5 0 .5-.8 0-1.6-.1-2.2-.1-.7 0-1.4 0-2.2.1-.2-.1-.2-.4 0-.5l.4-.1c.9-.2 1-.2 1-1.7V3.6"/><path id="Fill-13" d="M89.7 3.6c-.7-1.4-.7-1.5-1.3-1.7l-.7-.2c-.1-.1-.2-.4 0-.5.6 0 1.3.1 2 .1.8 0 1.4 0 2.1-.1.2.1.2.4 0 .5l-.5.1c-.6.1-.6.4-.1 1.4l1.1 2.4c.5 1.2.9 2.1 1.2 2.8l1.2-2.7c.5-1 1.1-2.5 1.3-3.1.2-.5.1-.6-.5-.7l-.3-.1c-.2-.1-.1-.4 0-.5.6 0 1.2.1 1.8.1.7 0 1.2 0 1.5-.1.2.1.3.4.1.5l-.6.1c-.7.1-.8.3-1.5 1.8l-1.7 3.6c-.7 1.4-1.3 3-1.5 3.7h-.4c-.2-.6-.4-1.3-.7-1.9l-2.5-5.5"/><path id="Fill-14" d="M104.8 3.6c0-1.5-.1-1.6-.9-1.7l-.3-.1c-.2-.1-.1-.5 0-.5h5.1c1 0 1.8 0 2-.1 0 .3.1 1.3.2 2.2-.1.2-.4.2-.6 0-.1-.6-.3-.8-.4-1-.3-.5-1.3-.5-1.8-.5h-1c-.8 0-.8 0-.8.7V5c0 .4 0 .4.4.4h1c1.2 0 1.3-.2 1.4-.8l.1-.4c.1-.2.4-.1.5 0v3.1c-.1.2-.4.2-.5 0l.1-.3c-.2-.7-.3-.8-1.4-.8h-1c-.4 0-.4.1-.4.5v1.6c0 .7 0 1.3.2 1.6.2.2.6.3 1.8.3 1.4 0 2.2-.1 2.8-1.8.2-.1.5-.1.6.1-.1.9-.4 2-.7 2.4h-5.6c-.7 0-1.4 0-2.4.1-.2-.1-.2-.4 0-.5l.6-.1c.9-.1 1-.2 1-1.7V3.6"/><path id="Fill-15" d="M118.8 8.5c0 1.5-.1 1.5-1 1.7l-.3.1c-.2.1-.2.5 0 .5.8 0 1.4-.1 2.1-.1.7 0 1.4 0 2.3.1.2-.1.2-.4 0-.5l-.5-.1c-.9-.1-1-.2-1-1.7V6.9c0-.3 0-.3.6-.3.3 0 .7.1.9.3.5.7 1 1.7 1.6 2.4 1 1.2 1.7 1.6 3 1.6.4 0 .7 0 .9-.1.1-.1.1-.3 0-.3-.3 0-.8-.1-1.2-.5-.7-.6-1.7-1.7-2.8-3.5-.1-.1-.1-.2 0-.3.9-.3 1.9-.9 1.9-2.3 0-2.3-2.2-2.6-4.2-2.6-1.2 0-2.4 0-3.6.1-.2.1-.2.5 0 .5l.6.1c.5.1.5.4.5 1.8v4.7zm1.6-6c0-.6.2-.6 1-.6 1.5 0 2.3 1 2.3 2 0 1.5-.7 2.1-2.2 2.1-1.1 0-1.1 0-1.1-.5v-3z"/><path id="Fill-16" d="M134.6 6.3c-1-.5-1.9-1.4-1.9-2.6 0-1.6 1.2-2.7 3.4-2.7.8 0 1.3.2 2 .3.2.4.3 1.2.3 2.1-.1.2-.5.2-.6 0-.2-.8-.7-1.9-2-1.9S134 2.2 134 3s.6 1.3 1.5 1.7l1.4.7c.8.4 1.8 1.3 1.8 2.8 0 1.7-1.4 2.8-3.5 2.8-1.3 0-2.2-.5-2.5-.7-.2-.3-.5-1.1-.5-2.2.1-.2.4-.2.6 0 .2.8 1.1 2.3 2.6 2.3 1.1 0 1.8-.6 1.8-1.6 0-.7-.3-1.4-1.5-2l-1.1-.5"/><path id="Fill-17" d="M146 3.6c0-1.5-.1-1.6-1-1.7l-.4-.1c-.2-.1-.1-.5 0-.5.9 0 1.5.1 2.2.1.7 0 1.4 0 2.2-.1.2.1.2.4 0 .5l-.4.1c-.9.2-1 .2-1 1.7v4.9c0 1.5.1 1.6 1 1.7l.4.1c.2.1.1.5 0 .5-.8 0-1.5-.1-2.2-.1-.7 0-1.4 0-2.2.1-.2-.1-.2-.4 0-.5l.4-.1c.9-.2 1-.2 1-1.7V3.6"/><path id="Fill-19" d="M158.5 2.5c0-.6 0-.6-.5-.6h-.7c-1.3 0-1.9.1-2.4 1.6-.2.1-.5.1-.5-.1.2-.9.5-2 .6-2.6.1-.1.3-.1.4 0 0 .4.3.4 1.2.4h6.1c.8 0 1 0 1.1-.4.2-.1.3 0 .4.1-.2.6-.3 1.7-.2 2.5-.1.2-.5.2-.5 0-.1-1.4-.7-1.6-2-1.6h-.7c-.4 0-.5 0-.5.6v6c0 1.5.1 1.6 1 1.7l.6.1c.1.1.1.5 0 .5-.9 0-1.7-.1-2.4-.1s-1.5 0-2.4.1c-.2-.1-.2-.4 0-.5l.6-.1c.9-.1 1-.2 1-1.7V2.5"/><path id="Fill-21" d="M172.9 7.8c0-.7-.1-.8-.6-1.9L170.7 3c-.5-.9-.7-1.1-1.2-1.2l-.6-.1c-.2-.1-.1-.5.1-.5.7 0 1.2.1 2 .1.7 0 1.2 0 1.9-.1.2.1.2.4 0 .5l-.3.1c-.5.1-.6.2-.2.9l.8 1.5c.3.7.6 1.2 1 1.8.3-.6.7-1.1 1-1.8l.9-1.6c.3-.6.4-.8-.1-.9l-.5-.1c-.2-.1-.2-.5 0-.5.7 0 1.2.1 1.7.1s.9 0 1.5-.1c.2.1.2.4.1.5l-.5.1c-.7.1-.8.3-1.5 1.4l-1.3 2.2c-.8 1.2-.8 1.5-.8 2.1v1.2c0 1.3.1 1.4 1 1.5l.6.1c.1.1.1.5-.1.5-1 0-1.7-.1-2.3-.1-.7 0-1.4 0-2.3.1-.2-.1-.2-.4-.1-.5l.6-.1c.9-.1 1-.2 1-1.5v-.8"/><path id="Fill-22" d="M191.7.9c-3.2 0-5.4 2.2-5.4 5.1 0 2.7 2 4.9 5.4 4.9 3.1 0 5.3-2.1 5.3-5.1 0-2.6-1.8-4.9-5.3-4.9zm-.2.7c2.4 0 3.5 2.4 3.5 4.7 0 3-1.6 4.1-3.2 4.1-2.5 0-3.6-2.4-3.6-4.7 0-3.1 1.8-4.1 3.3-4.1z"/><path id="Fill-23" d="M202.5 3.6c0-1.5-.1-1.5-.9-1.7l-.3-.1c-.2-.1-.1-.5 0-.5h4.9c1 0 1.8 0 2.1-.1 0 .3 0 1.3.1 2.2-.1.2-.4.2-.6 0-.1-.6-.3-.8-.4-1-.4-.5-1.3-.5-1.9-.5h-.8c-.7 0-.7 0-.7.8v2.5c0 .4 0 .4.4.4h1.2c1.2 0 1.3-.2 1.4-.8l.1-.4c.1-.2.4-.1.5 0v3.1c-.1.2-.4.2-.5 0l-.1-.4c-.2-.7-.3-.8-1.4-.8h-1.2c-.4 0-.4.1-.4.5v1.6c0 1.5.1 1.7 1 1.7l.7.1c.1.1.1.5 0 .5-1.1 0-1.8-.1-2.5-.1s-1.4 0-2.2.1c-.2-.1-.2-.4 0-.5l.4-.1c.9-.2 1-.2 1-1.7V3.6"/><path id="Fill-24" d="M7.3 6.7c.2.5.4 1.2.4 1.2s.7-.1 1.2-.2c-.3.4-.8 1-.8 1s.5.6.8.9c-.5-.2-1.2-.3-1.2-.3s-.3.7-.4 1.2c-.2-.5-.5-1.2-.5-1.2s-.7.1-1.2.2c.3-.4.8-.9.8-.9s-.5-.6-.8-1c.5.1 1.2.2 1.2.2s.3-.6.5-1.1zm-.8.5c-.4 0-2.4-.4-2.4-.4s1.4 1.6 1.6 1.8c-.2.3-1.6 1.8-1.6 1.8s2-.4 2.4-.5c.1.4.8 2.3.8 2.3s.6-1.9.7-2.2c.4.1 2.4.5 2.4.5S9.1 8.9 8.8 8.6c.2-.3 1.6-1.8 1.6-1.8s-2 .4-2.4.4c-.1-.3-.7-2.3-.7-2.3s-.7 2-.8 2.3z"/><path id="Fill-25" d="M8 36.7c.1 0 .1 0 0 0"/><path id="Fill-26" d="M12.3 24c.1-.3.2-.5.3-.7.1-.1.1-.1.2-.1h.1v-.1h-.6v.1h.1c.1 0 .1 0 .1.2-.2.4-.3.8-.5 1.2 0-.1-.1-.2-.2-.4l-.2-.5c-.1-.3-.1-.4-.1-.4l.1-.1h.1v-.1h-.8v.1h.1c.1 0 .1.1.2.3l.5 1.3c.1.1.1.3.1.4h.2c.1-.2.2-.5.3-.8V24"/><path id="Fill-27" d="M13.7 24.7c0 .3 0 .3.2.3h.1v.1h-.8V25h.1c.1 0 .2 0 .2-.3v-1.1c0-.3 0-.3-.2-.4h-.1v-.1h.8v.1h-.1c-.1 0-.2 0-.2.4v1.1"/><path id="Fill-28" d="M14.9 23.3c0-.1 0-.1-.1-.1h-.2c-.3 0-.4 0-.5.3H14c.1-.2.1-.4.1-.5 0 .1.1.1.3.1h1.2c.1 0 .2 0 .2-.1 0 .1-.1.4 0 .5h-.1c0-.2-.1-.3-.4-.3h-.2c-.1 0-.1 0-.1.1v1.3c0 .3 0 .3.2.3h.1v.1h-.9v-.1h.1c.1 0 .2 0 .2-.3v-1.3"/><path id="Fill-29" d="M16.6 24.3c-.1 0-.1 0-.1-.1l.1-.4c.1-.1.1-.2.1-.2s0 .1.1.2l.1.4c0 .1 0 .1-.1.1h-.2zm.3.1c.1 0 .1 0 .1.1l.1.4c0 .1 0 .2-.1.2h-.1v.1h.8v-.1c-.2 0-.2 0-.2-.3l-.4-1.3c0-.1-.1-.3-.1-.4 0 0-.1.1-.2.1 0 0 0 .1-.1.2l-.4 1.1c-.1.2-.1.3-.2.4-.1.1-.1.1-.2.1h-.1v.1h.6V25h-.1c-.1 0-.1 0-.1-.2l.1-.3c0-.1 0-.1.1-.1h.5z"/><path id="Fill-30" d="M11.6 28.1c0 .3 0 .3-.2.4h-.1v.1h.8c.3 0 .5 0 .7-.1.3-.2.5-.5.5-.9 0-.5-.2-.8-.6-.9-.2-.1-.4-.1-.7-.1h-.7v.1h.1c.1 0 .1.1.1.4v1zm.3-1.2v-.2h.2c.5 0 .8.3.8.9 0 .5-.2.9-.7.9-.3 0-.3-.2-.3-.5v-1.1z"/><path id="Fill-31" d="M13.7 26.9c0-.3 0-.3-.2-.4h-.1v-.1h.8v.1h-.1c-.1 0-.2 0-.2.4v.7c0 .4.1.8.5.8s.6-.3.6-.8v-.4c0-.2 0-.5-.1-.6l-.1-.1h-.1v-.1h.6v.1h-.1c-.1 0-.1 0-.1.1v1c0 .3 0 .5-.2.7-.2.2-.4.2-.6.2-.3 0-.5-.1-.6-.2-.1-.1-.2-.3-.2-.7v-.7"/><path id="Fill-32" d="M16.4 26.9c0-.3 0-.3.2-.3h.1v-.1h-.8v.1h.1c.1 0 .2 0 .2.3V28c0 .3 0 .3-.2.3h-.1v.1H17.3c0-.1.1-.3.1-.4h-.1c-.1.3-.2.3-.5.3-.2 0-.3 0-.3-.1v-1.3"/><path id="Fill-33" d="M17 27.5c.1-.1.2-.2.3-.2 0 0 .1 0 .2.1.2.1.3.1.4.1.1 0 .3-.1.3-.3h-.1c0 .1-.1.2-.2.2s-.1 0-.3-.1c-.2-.1-.3-.1-.3-.1s-.3 0-.3.3"/><path id="Fill-34" d="M29.3 30.9s-1.2.8-4.7.3c-3.4-.4-4.6.4-4.6.4V20.7s1-.8 4.4-.4c3.4.4 4.9-.1 4.9-.1v10.7zm-10.2.7s-1.2-.8-4.6-.4c-3.4.4-4.7-.3-4.7-.3V20.1s1.4.6 4.9.1c3.4-.4 4.4.4 4.4.4v11zm11-11V19s-2.1.9-5.7.4c-3.4-.5-4.8.4-4.8.4s-1.4-.9-4.9-.4C11.1 19.9 9 19 9 19v1.6H8v12.2h10s.5.6 1.6.6 1.6-.6 1.6-.6h10V20.6h-1.1z"/><path id="Fill-35" d="M22.4 23.6c-.1.1-.1.1 0 0-.1-.2-.2-.4-.6-.4-.3 0-.7.3-.7.9 0 .6.4.9.7.9.3 0 .5-.2.6-.4h.1c0 .2-.1.4-.1.4h-.1c-.1 0-.2.1-.4.1-.3 0-.5-.1-.7-.2-.2-.2-.4-.4-.4-.8 0-.3.1-.6.3-.8.2-.2.5-.2.7-.2.2 0 .3 0 .5.1h.1c-.1 0-.1.2 0 .4"/><path id="Fill-36" d="M22.9 23.5c0-.3 0-.3-.2-.4V23H24v.4h-.1c0-.2-.1-.3-.2-.3h-.4c-.1 0-.1 0-.1.2v.6c0 .1 0 .1.1.1h.1c.3 0 .3 0 .3-.1v-.1h.1v.6h-.1v-.1c0-.1-.1-.1-.3-.1h-.1c-.1 0-.1 0-.1.1v.7s0 .1.3.1c.4 0 .4-.1.5-.3h.1c0 .1-.1.4-.1.4H22.7v-.1h.1c.1 0 .2 0 .2-.4v-1.2"/><path id="Fill-37" d="M24.6 24.7c0 .3 0 .3-.2.4h-.1v.1h.8c.3 0 .5 0 .6-.1.4-.2.5-.5.5-.9 0-.5-.2-.8-.6-.9-.2-.1-.4-.1-.6-.1h-.7v.1h.1c.1 0 .1 0 .1.3v1.1zm.3-1.2v-.2h.1c.5 0 .8.3.8.9 0 .5-.2.9-.7.9-.3 0-.2-.2-.2-.5v-1.1z"/><path id="Fill-38" d="M27.5 23c-.6 0-1 .5-1 1.1 0 .5.4 1 1 1s1-.4 1-1.1c0-.5-.3-1-1-1zm0 .2c.4 0 .6.5.6 1 0 .6-.3.9-.6.9-.5 0-.6-.6-.6-1 0-.7.3-.9.6-.9z"/><path id="Fill-39" d="M21.5 28.4c-.1-.1-.1-.3-.1-.5h.1c.1.2.2.5.5.5.2 0 .4-.1.4-.3 0-.2-.1-.3-.3-.4l-.1-.1c-.2-.1-.4-.3-.4-.6s.2-.6.7-.6c.2 0 .3 0 .4.1 0 .1.1.3.1.4h-.1c0-.2-.1-.4-.4-.4-.2 0-.3.2-.3.3 0 .1.1.3.3.4l.2.1c.2.1.4.3.4.6s-.3.6-.7.6c-.5.1-.7 0-.7-.1"/><path id="Fill-40" d="M23.2 27c0-.3 0-.3-.1-.3H23v-.1h.7c.3 0 .5 0 .6.1.2.1.2.3.2.5 0 .5-.4.6-.7.6h-.1v-.1c.3-.1.4-.3.4-.5 0-.3-.2-.5-.4-.5-.1 0-.1 0-.1.1v1.3c0 .3 0 .3.2.3h.1v.1h-.8v-.1c.1 0 .2 0 .2-.4v-1"/><path id="Fill-41" d="M25 28.1c0 .3 0 .3-.2.3h-.1v.1H26c0-.1.1-.3.1-.4H26c-.1.2-.1.3-.5.3-.2 0-.3 0-.3-.1s-.1-.2-.1-.3v-.3c0-.1 0-.1.1-.1h.1c.3 0 .3 0 .3.1v.1h.1v-.3-.3h-.1v.1c0 .1-.1.1-.3.1h-.1c-.1 0-.1 0-.1-.1v-.6c0-.2 0-.2.1-.2h.4c.1 0 .1.1.2.3h.1v-.4h-1.4v.1c.1 0 .2 0 .2.4v1.2"/><path id="Fill-42" d="M26.7 28.4c-.1-.1-.1-.3-.1-.5h.1c.1.2.2.5.5.5.2 0 .4-.1.4-.3 0-.2-.1-.3-.3-.4l-.1-.1c-.2-.1-.4-.3-.4-.6s.2-.6.7-.6c.2 0 .3 0 .4.1 0 .1.1.3.1.4h-.1c0-.2-.1-.4-.4-.4-.2 0-.3.2-.3.3 0 .1.1.3.3.4l.2.1c.2.1.4.3.4.6s-.3.6-.7.6c-.5.1-.6 0-.7-.1"/><path id="Fill-43" d="M36.4 19.3c0 7.2-2.2 12.9-5.4 17.4s-.6-.2-1.6-.2c-2 0-2.6 1.2-5.1 1.2-1.5 0-2.1-.7-3.3-1v-2.9s-.4.5-1.6.5c-1.2 0-1.6-.5-1.6-.5v2.9c-1.2.3-1.8 1-3.3 1-2.4 0-3-1.2-5.1-1.2-1 0-1.6.2-1.6.2-3.2-4.5-5.4-10.2-5.4-17.4V3.9h33.8l.2 15.4zM26.3 42c-.5.4-.7.6-1.2.7-.2 0-.7.1-.7.1-2 0-2.4-1.2-4.9-1.2-2.4 0-2.9 1.2-4.9 1.2 0 0-.5 0-.7-.1-.5-.1-.7-.2-1.2-.7-1-.8-1.8-1.7-2.7-2.8 1.8 0 2.3 1.1 4.6 1.1 2 0 2.4-1.2 4.9-1.2 2.4 0 2.9 1.2 4.9 1.2 2.4 0 2.8-1.1 4.6-1.1-.8 1.1-1.7 2-2.7 2.8zm-6.8 4.9c-1-.5-1.9-1.1-2.9-1.8.8-.3 1.5-.9 2.9-.9s2.1.5 2.9.9c-.9.7-1.9 1.2-2.9 1.8zm0-45.6H0V19c0 16.9 10.8 26 19.5 31C28.3 45.1 39 36 39 19V1.2H19.5z"/><path id="Fill-44" d="M21.1 15.9h6.7l2.3 1.3v-5.4l-2.3 1.3h-6.7V8l1.3-2.3h-5.8L18 8v5.2h-6.7L9 11.8v5.4l2.3-1.3H18v2.7s.9.1 1.6.5c.7-.4 1.6-.5 1.6-.5l-.1-2.7"/></symbol><use xlink:href="#footer-logo" y="579.88" width="211" height="50"/><symbol id="icon-external" viewBox="0 -256 1850 1850"><style>path{fill:#444}</style><path d="M1408 608V288q0-119-84.5-203.5T1120 0H288Q169 0 84.5 84.5T0 288v832q0 119 84.5 203.5T288 1408h704q14 0 23-9t9-23v-64q0-14-9-23t-23-9H288q-66 0-113-47t-47-113V288q0-66 47-113t113-47h832q66 0 113 47t47 113v320q0 14 9 23t23 9h64q14 0 23-9t9-23zm384 864V960q0-26-19-45t-45-19q-26 0-45 19l-176 176-652-652q-10-10-23-10t-23 10L695 553q-10 10-10 23t10 23l652 652-176 176q-19 19-19 45t19 45q19 19 45 19h512q26 0 45-19t19-45z" transform="matrix(1 0 0 -1 30.373 1426.95)"/></symbol><use xlink:href="#icon-external" y="631.88" width="100" height="100"/><symbol id="instagram" viewBox="0 0 21 20"><path d="M20.2 5.9c0-1.1-.2-1.8-.5-2.4-.3-.7-.6-1.2-1.2-1.8S17.4.8 16.7.5c-.6-.2-1.4-.4-2.4-.5h-4.1c-2.8 0-3 0-4.1.1C5 .1 4.3.3 3.7.6c-.7.2-1.2.5-1.8 1.1S1 2.8.8 3.4C.5 4.1.4 4.8.3 5.9.3 7 .2 7.3.2 10s0 3.1.1 4.1c0 1.1.2 1.8.5 2.4.3.7.6 1.2 1.2 1.8s1.1.9 1.8 1.2c.6.2 1.4.4 2.4.5s1.3 0 4 0 3.1 0 4.1-.1c1.1 0 1.8-.2 2.4-.5.7-.3 1.2-.6 1.8-1.2s.9-1.1 1.2-1.8c.2-.6.4-1.4.5-2.4s.1-1.4.1-4.1-.1-3-.1-4zM18.4 14c0 1-.2 1.5-.3 1.9-.2.5-.4.8-.7 1.2-.3.3-.7.6-1.2.7-.4.1-.9.3-1.9.3-1.1 0-1.4.1-4 .1s-3 0-4-.1c-1 0-1.5-.2-1.9-.3-.5-.2-.8-.4-1.2-.7s-.6-.7-.7-1.2c-.2-.4-.4-.9-.4-1.9 0-1-.1-1.3-.1-4s0-3 .1-4c0-1 .2-1.5.3-1.9.2-.5.4-.8.8-1.1s.7-.6 1.2-.7c.4-.1.9-.3 1.9-.3 1.1-.1 1.4-.1 4-.1 2.7 0 3 0 4 .1 1 0 1.5.2 1.9.3.5.2.8.4 1.2.7.3.3.6.7.7 1.2.1.3.2.8.3 1.8 0 1.1.1 1.4.1 4s-.1 3-.1 4z"/><path id="Shape_1_" d="M10.2 4.9c-2.8 0-5.1 2.3-5.1 5.1s2.3 5.1 5.1 5.1 5.1-2.3 5.1-5.1-2.2-5.1-5.1-5.1zm0 8.4c-1.8 0-3.3-1.5-3.3-3.3s1.5-3.3 3.3-3.3 3.3 1.5 3.3 3.3-1.4 3.3-3.3 3.3z"/><circle id="Oval" cx="15.6" cy="4.7" r="1.2"/></symbol><use xlink:href="#instagram" y="733.88" width="21" height="20"/><symbol id="linkedin" viewBox="0 0 20 20"><path d="M18.5 0h-17C.7 0 0 .6 0 1.4v17.1c0 .9.7 1.5 1.5 1.5h17c.8 0 1.5-.6 1.5-1.4V1.4c0-.8-.7-1.4-1.5-1.4zM5.9 17H3V7.5h3V17h-.1zM4.4 6.2c-1 0-1.7-.8-1.7-1.7s.8-1.7 1.7-1.7c.9 0 1.7.8 1.7 1.7.1.9-.7 1.7-1.7 1.7zM17 17h-3v-4.6c0-1.1 0-2.5-1.5-2.5s-1.8 1.2-1.8 2.5V17h-3V7.5h2.8v1.3c.6-.8 1.5-1.5 3-1.5 3 0 3.6 2 3.6 4.5L17 17z"/></symbol><use xlink:href="#linkedin" y="755.88" width="20" height="20"/><symbol id="logo-business" viewBox="0 0 257 68"><path d="M12.8 29H9.3L4.6 8.6 4.8 29H1V.9h5.4l4.7 21.4L15.7.9h5.4V29h-3.7l.2-20.4L12.8 29zM25.1.9h12.4v3.4h-8.6v8.6h7.3v3.3h-7.3v9.3h9.2V29h-13V.9zm20.7 0l5 13.8 2.5 7.2-.1-7.7V.9h3.6V29h-4.3l-5.1-13.8L44.9 8l.1 7.7V29h-3.6V.9h4.4zM67.1 29h-6.3V.9h6.3c1.9 0 3.5.2 4.7.6s2.2 1.2 3 2.3c.7 1.2 1.2 2.6 1.5 4.4.3 1.8.4 4 .4 6.8s-.1 5.1-.4 6.8-.8 3.2-1.6 4.3c-.8 1.1-1.8 1.9-3 2.3-1.1.4-2.7.6-4.6.6zm-2.5-3.4h2.7c1 0 1.8-.1 2.5-.4s1.2-.6 1.6-1.1c.4-.5.8-1.2 1-2.1.2-.9.4-1.9.4-3 .1-1 .2-2.3.2-4s0-3.1-.1-4.2-.2-2.1-.4-3c-.2-.9-.5-1.6-1-2.1-.4-.5-1-.8-1.6-1.1s-1.5-.4-2.5-.4h-2.7v21.4zm17.1.6C80.6 24 80 20.3 80 15s.6-9.1 1.7-11.2C82.8 1.7 84.9.6 88 .6c3.1 0 5.2 1.1 6.3 3.2C95.4 5.9 96 9.6 96 15s-.6 9.1-1.7 11.2c-1.1 2.1-3.2 3.2-6.3 3.2-3.1 0-5.2-1.1-6.3-3.2zm9.6-2.5c.6-1.6.8-4.5.8-8.7 0-4.2-.3-7.2-.8-8.7-.6-1.6-1.7-2.4-3.3-2.4-1.7 0-2.8.8-3.3 2.3-.5 1.6-.8 4.5-.8 8.7s.3 7.2.8 8.7c.5 1.6 1.6 2.3 3.3 2.3 1.6.1 2.8-.6 3.3-2.2zm7.3 5.3v-2.8l9-18.5 1.7-3.5H99V.9h14.5v2.8l-9 18.5-1.8 3.5h11V29H98.6zM121.1.6h5.7l5.4 28.4h-3.9l-1-5.5h-6.8l-1 5.5h-3.9L121.1.6zm2.9 3.5l-2.8 16.2h5.7L124 4.1zm21.4 2.3c-.6 1.7-.9 4.5-.9 8.6s.3 6.9.9 8.6c.6 1.7 1.7 2.5 3.5 2.5 1.5 0 2.5-.4 3-1.2.5-.8.8-2.2.8-4.2l3.8.5c0 2.9-.6 5-1.6 6.3-1.1 1.3-3 1.9-5.9 1.9-3 0-5.1-1.1-6.4-3.2-1.3-2.1-1.9-5.9-1.9-11.2 0-5.4.6-9.1 1.9-11.2 1.3-2.1 3.4-3.2 6.4-3.2 2.9 0 4.8.6 5.9 1.9 1.1 1.3 1.6 3.4 1.6 6.3l-3.8.5c0-2-.3-3.4-.8-4.2s-1.5-1.2-3-1.2c-1.7 0-2.9.8-3.5 2.5zM161 26.2c-1.1-2.2-1.7-5.9-1.7-11.2s.6-9.1 1.7-11.2 3.2-3.2 6.3-3.2c3.1 0 5.2 1.1 6.3 3.2 1.1 2.1 1.7 5.9 1.7 11.2s-.6 9.1-1.7 11.2c-1.1 2.1-3.2 3.2-6.3 3.2-3 0-5.2-1.1-6.3-3.2zm9.7-2.5c.6-1.6.8-4.5.8-8.7 0-4.2-.3-7.2-.8-8.7-.6-1.6-1.7-2.4-3.3-2.4-1.7 0-2.8.8-3.3 2.3-.5 1.6-.8 4.5-.8 8.7s.3 7.2.8 8.7c.5 1.6 1.6 2.3 3.3 2.3 1.6.1 2.7-.6 3.3-2.2zm12-22.8v24.7h7.9V29H179V.9h3.7zm14.5 0v24.7h7.9V29h-11.7V.9h3.8zm10.6 0h12.4v3.4h-8.6v8.6h7.3v3.3h-7.3v9.3h9.2V29h-13V.9zM223.7 15c0-5.3.6-9 1.9-11.2s3.5-3.3 6.8-3.3c2.9 0 4.9.6 5.9 1.9 1 1.3 1.5 3.4 1.6 6.3l-3.9.5c0-2-.3-3.4-.8-4.2-.5-.8-1.5-1.2-3-1.2-1.8 0-3.1.8-3.7 2.5-.6 1.7-1 4.5-1 8.6 0 1.8 0 3.1.1 4.2s.2 2.1.3 3.1c.2 1 .4 1.7.8 2.2s.8.9 1.4 1.2c.6.3 1.3.4 2.1.4 1.5 0 2.9-.3 4-.8v-8.1h-3.4V14h7.1v13.5c-2.1 1.3-4.7 1.9-7.7 1.9-3.3 0-5.5-1.1-6.7-3.2s-1.8-5.9-1.8-11.2zM243.5.9h12.4v3.4h-8.6v8.6h7.3v3.3h-7.3v9.3h9.2V29h-13V.9zM2.2 64.2C1.1 62 .6 58.3.6 53c0-5.3.6-9.1 1.7-11.2 1.1-2.1 3.2-3.2 6.3-3.2s5.2 1.1 6.3 3.2c1.1 2.1 1.7 5.9 1.7 11.2 0 5.3-.6 9.1-1.7 11.2-1.1 2.1-3.2 3.2-6.3 3.2s-5.3-1.1-6.4-3.2zm9.7-2.5c.6-1.6.8-4.5.8-8.7 0-4.2-.3-7.2-.8-8.7s-1.7-2.4-3.3-2.4c-1.7 0-2.8.8-3.3 2.3-.5 1.6-.8 4.5-.8 8.7 0 4.3.3 7.2.8 8.7.5 1.7 1.6 2.4 3.3 2.4 1.6 0 2.7-.7 3.3-2.3zm12-7.4V67h-3.8V38.9h12.3v3.4h-8.5v8.6h7.4v3.3h-7.4zM50.8 67h-9.2V38.9h8.9c2 0 3.5.5 4.5 1.6s1.5 3 1.5 5.8c0 3.2-.9 5.2-2.8 6.1 2.4.6 3.5 2.9 3.5 6.9 0 2.8-.5 4.8-1.6 6S53 67 50.8 67zm-5.3-3.4H50c1.2 0 2.1-.3 2.7-.9s.9-1.8.9-3.5c0-1.8-.3-3.1-.9-3.8-.6-.7-1.4-1-2.4-1h-4.7v9.2zm4.3-21.3h-4.4v8.6h4.4c1.9 0 2.9-1.5 2.9-4.4 0-1.6-.2-2.7-.7-3.3-.4-.6-1.1-.9-2.2-.9zm15.3 20.8c.5.6 1.5 1 3 1s2.5-.3 3-1c.5-.6.7-1.8.7-3.4V38.9h3.8v20.9c0 2.7-.5 4.6-1.5 5.8s-3 1.8-6 1.8-4.9-.6-6-1.8-1.5-3.1-1.5-5.8V38.9h3.8v20.8c0 1.6.2 2.8.7 3.4zm20.9 1c1.5 0 2.6-.3 3.2-1 .7-.7 1-1.9 1-3.5s-.3-2.7-1-3.4c-.6-.6-1.9-1.2-3.7-1.7-1-.3-1.8-.5-2.4-.8s-1.3-.7-2-1.3-1.2-1.4-1.5-2.3c-.3-1-.5-2.1-.5-3.5 0-2.8.6-4.8 1.7-6s3.1-1.9 5.8-1.9c1.2 0 2.3.1 3.1.4s1.5.6 2 1.1c.5.4.9 1 1.1 1.8.3.8.5 1.5.5 2.2s.1 1.6.1 2.7l-3.7.5c0-.9 0-1.7-.1-2.2-.1-.6-.2-1.1-.4-1.6s-.6-.9-1-1.1c-.5-.2-1.1-.3-1.8-.3-1.2 0-2.1.3-2.7 1-.6.7-.9 1.8-.9 3.4 0 1.5.3 2.6.8 3.2s1.7 1.1 3.3 1.5c1.1.3 2.1.6 2.8.9s1.4.8 2.1 1.4c.6.6 1.1 1.4 1.4 2.4.3 1 .5 2.2.5 3.7 0 2.9-.7 5-2 6.3s-3.3 1.9-6.1 1.9c-1.5 0-2.7-.2-3.7-.5S80.5 66 80 65.3c-.5-.8-.9-1.6-1.1-2.6-.2-1-.3-2.2-.3-3.6l3.7-.5c0 2 .3 3.4.7 4.2s1.5 1.3 3 1.3zm15.2-25.2V67h-3.8V38.9h3.8zm8.5 0l5 13.8 2.5 7.2-.1-7.7V38.9h3.6V67h-4.3l-5.1-13.8-2.5-7.2.1 7.7v13.2h-3.6v-28h4.4zm15.1 0h12.4v3.4h-8.6v8.6h7.3v3.3h-7.3v9.3h9.2V67h-13V38.9zm22.7 25.2c1.5 0 2.6-.3 3.2-1 .7-.7 1-1.9 1-3.5s-.3-2.7-1-3.4c-.6-.6-1.9-1.2-3.7-1.7-1-.3-1.8-.5-2.4-.8-.6-.3-1.3-.7-2-1.3s-1.2-1.4-1.5-2.3-.5-2.1-.5-3.5c0-2.8.6-4.8 1.7-6 1.1-1.3 3.1-1.9 5.8-1.9 1.2 0 2.3.1 3.1.4s1.5.6 2 1.1c.5.4.9 1 1.1 1.8.3.8.5 1.5.5 2.2.1.7.1 1.6.1 2.7l-3.7.5c0-.9 0-1.7-.1-2.2-.1-.6-.2-1.1-.4-1.6s-.6-.9-1-1.1c-.5-.2-1.1-.3-1.8-.3-1.2 0-2.1.3-2.7 1-.6.7-.9 1.8-.9 3.4 0 1.5.3 2.6.8 3.2s1.7 1.1 3.3 1.5c1.1.3 2.1.6 2.8.9.7.3 1.4.8 2.1 1.4.6.6 1.1 1.4 1.4 2.4.3 1 .5 2.2.5 3.7 0 2.9-.7 5-2 6.3-1.3 1.3-3.3 1.9-6.1 1.9-1.5 0-2.7-.2-3.7-.5s-1.7-.9-2.2-1.7c-.5-.8-.9-1.6-1.1-2.6-.2-1-.3-2.2-.3-3.6l3.7-.5c0 2 .3 3.4.7 4.2s1.8.9 3.3.9zm17.7 0c1.5 0 2.6-.3 3.2-1 .7-.7 1-1.9 1-3.5s-.3-2.7-1-3.4c-.6-.6-1.9-1.2-3.7-1.7-1-.3-1.8-.5-2.4-.8-.6-.3-1.3-.7-2-1.3s-1.2-1.4-1.5-2.3-.5-2.1-.5-3.5c0-2.8.6-4.8 1.7-6 1.1-1.3 3.1-1.9 5.8-1.9 1.2 0 2.3.1 3.1.4s1.5.6 2 1.1c.5.4.9 1 1.1 1.8.3.8.5 1.5.5 2.2s.1 1.6.1 2.7l-3.7.5c0-.9 0-1.7-.1-2.2-.1-.6-.2-1.1-.4-1.6s-.6-.9-1-1.1c-.5-.2-1.1-.3-1.8-.3-1.2 0-2.1.3-2.7 1-.6.7-.9 1.8-.9 3.4 0 1.5.3 2.6.8 3.2s1.7 1.1 3.3 1.5c1.1.3 2.1.6 2.8.9.7.3 1.4.8 2.1 1.4.6.6 1.1 1.4 1.4 2.4.3 1 .5 2.2.5 3.7 0 2.9-.7 5-2 6.3-1.3 1.3-3.3 1.9-6.1 1.9-1.5 0-2.7-.2-3.7-.5s-1.7-.9-2.2-1.7c-.5-.8-.9-1.6-1.1-2.6-.2-1-.3-2.2-.3-3.6l3.7-.5c0 2 .3 3.4.7 4.2s1.8.9 3.3.9z"/></symbol><use xlink:href="#logo-business" y="777.88" width="257" height="68"/><symbol id="menu" viewBox="0 0 23.1 16.8"><path d="M0 0h23.1v2H0zM0 7.4h23.1v2H0zM0 14.8h23.1v2H0z"/></symbol><use xlink:href="#menu" y="847.88" width="23.1" height="16.8"/><symbol id="minus" viewBox="0 0 24 24"><path d="M.4 11h23.1v2H.4z"/></symbol><use xlink:href="#minus" y="866.68" width="24" height="24"/><symbol id="mobile-logo" viewBox="0 0 307 19"><path d="M7.4 18H5.3L2.4 5.5 2.5 18H.2V.8h3.3l2.9 13.1L9.2.8h3.3V18h-2.3l.1-12.5L7.4 18zM16.5.8h7.6v2.1h-5.3v5.3h4.5v2h-4.5v5.7h5.6V18h-7.9V.8zm14.1 0l3.1 8.4 1.5 4.4-.1-4.7V.8h2.2V18h-2.6l-3.1-8.4L30 5.2V18h-2.2V.8h2.8zM45.1 18h-3.8V.8h3.8c1.2 0 2.1.1 2.9.4s1.3.7 1.8 1.4.8 1.5 1 2.6c.2 1.1.2 2.5.2 4.2s-.1 3.1-.3 4.2-.5 1.9-1 2.6c-.5.7-1.1 1.1-1.8 1.4s-1.6.4-2.8.4zm-1.5-2.1h1.7c.6 0 1.1-.1 1.5-.2.4-.2.7-.4 1-.7.3-.3.5-.7.6-1.3l.3-1.8c0-.7.1-1.5.1-2.5s0-1.9-.1-2.5c0-.7-.1-1.3-.3-1.8-.1-.6-.3-1-.6-1.3-.3-.3-.6-.5-1-.7-.4-.2-.9-.2-1.5-.2h-1.7v13zm11.9.4c-.7-1.3-1-3.6-1-6.9s.3-5.5 1-6.9 2-2 3.9-2 3.2.7 3.9 2c.7 1.3 1 3.6 1 6.9s-.3 5.5-1 6.9c-.7 1.3-2 2-3.9 2s-3.2-.7-3.9-2zm5.9-1.5c.3-1 .5-2.7.5-5.3s-.2-4.5-.5-5.4c-.3-1-1-1.4-2-1.4s-1.7.5-2 1.4c-.3 1-.5 2.7-.5 5.3s.2 4.4.5 5.3 1 1.4 2 1.4c1 .1 1.7-.4 2-1.3zm6 3.2v-1.7L72.9 5 74 2.9H67.7V.8h8.8v1.7L71 13.8 70 16h6.7v2h-9.3zM82.6.7h3.5L89.4 18H87l-.6-3.4h-4.1l-.6 3.4h-2.4L82.6.7zm1.8 2.1l-1.7 9.9h3.5l-1.8-9.9zm16.1 1.4c-.4 1-.5 2.8-.5 5.3s.2 4.2.5 5.3 1.1 1.5 2.1 1.5c.9 0 1.5-.2 1.8-.7.3-.5.5-1.3.5-2.6l2.3.3c0 1.8-.3 3.1-1 3.8-.6.8-1.8 1.2-3.6 1.2s-3.1-.6-3.9-1.9c-.8-1.3-1.2-3.6-1.2-6.9s.4-5.6 1.2-6.9 2.1-1.9 3.9-1.9c1.7 0 2.9.4 3.6 1.2.6.8 1 2.1 1 3.8l-2.3.3c0-1.2-.2-2.1-.5-2.6s-.9-.7-1.8-.7c-1-.1-1.8.4-2.1 1.5zm11 12.1c-.7-1.3-1-3.6-1-6.9s.3-5.5 1-6.9 2-2 3.9-2 3.2.7 3.9 2c.7 1.3 1 3.6 1 6.9s-.3 5.5-1 6.9c-.7 1.3-2 2-3.9 2s-3.2-.7-3.9-2zm5.9-1.5c.3-1 .5-2.7.5-5.3s-.2-4.4-.5-5.3c-.3-1-1-1.4-2-1.4s-1.7.5-2 1.4c-.3 1-.5 2.7-.5 5.3s.2 4.4.5 5.3 1 1.4 2 1.4 1.7-.5 2-1.4zm8.9-14v15.1h4.8V18H124V.8h2.3zm10.3 0v15.1h4.8V18h-7.1V.8h2.3zm8 0h7.6v2.1h-5.3v5.3h4.5v2h-4.5v5.7h5.6V18h-7.9V.8zm11.2 8.6c0-3.2.4-5.5 1.1-6.8.8-1.3 2.1-2 4.1-2 1.8 0 3 .4 3.6 1.2s.9 2.1 1 3.9l-2.3.3c0-1.2-.2-2.1-.5-2.6s-.9-.7-1.8-.7c-1.1 0-1.9.5-2.3 1.5s-.6 2.8-.6 5.3v2.6c0 .6.1 1.3.2 1.9s.3 1.1.5 1.4c.2.3.5.5.8.7.3.2.8.3 1.3.3.9 0 1.7-.2 2.4-.5v-5h-2.1V8.8h4.3V17c-1.3.8-2.8 1.2-4.7 1.2-2 0-3.4-.7-4.1-2s-.9-3.5-.9-6.8zM169.4.8h7.6v2.1h-5.3v5.3h4.5v2h-4.5v5.7h5.6V18h-7.9V.8zm17.5 15.5c-.7-1.3-1-3.6-1-6.9s.3-5.5 1-6.9 2-2 3.9-2 3.2.7 3.9 2c.7 1.3 1 3.6 1 6.9s-.3 5.5-1 6.9c-.7 1.3-2 2-3.9 2s-3.3-.7-3.9-2zm5.9-1.5c.3-1 .5-2.7.5-5.3s-.2-4.4-.5-5.3c-.3-1-1-1.4-2-1.4s-1.7.5-2 1.4c-.3 1-.5 2.7-.5 5.3s.2 4.4.5 5.3 1 1.4 2 1.4c.9 0 1.6-.5 2-1.4zm8.8-4.6V18h-2.3V.8h7.5v2.1h-5.2v5.3h4.5v2h-4.5zm19.5 7.8h-5.6V.8h5.5c1.2 0 2.1.3 2.8 1 .6.6.9 1.8.9 3.5 0 1.9-.6 3.2-1.7 3.7 1.4.4 2.2 1.8 2.2 4.2 0 1.7-.3 2.9-1 3.7s-1.8 1.1-3.1 1.1zm-3.3-2.1h2.8c.7 0 1.3-.2 1.6-.6.4-.4.5-1.1.5-2.1 0-1.1-.2-1.9-.6-2.3-.4-.4-.9-.6-1.5-.6h-2.9v5.6zm2.6-13h-2.7v5.3h2.7c1.2 0 1.8-.9 1.8-2.7 0-1-.1-1.7-.4-2-.3-.4-.7-.6-1.4-.6zm10.9 12.7c.3.4.9.6 1.8.6s1.6-.2 1.8-.6c.3-.4.4-1.1.4-2.1V.8h2.3v12.8c0 1.6-.3 2.8-.9 3.6s-1.8 1.1-3.7 1.1-3-.4-3.7-1.1c-.6-.7-.9-1.9-.9-3.6V.8h2.3v12.7c.2 1 .3 1.7.6 2.1zm14.2.6c.9 0 1.6-.2 2-.6.4-.4.6-1.1.6-2.2 0-1-.2-1.7-.6-2.1-.4-.4-1.1-.7-2.2-1.1-.6-.2-1.1-.3-1.5-.5-.4-.2-.8-.5-1.2-.8-.4-.4-.7-.8-.9-1.4-.2-.6-.3-1.3-.3-2.1 0-1.7.3-2.9 1-3.7.7-.8 1.9-1.2 3.5-1.2.7 0 1.4.1 1.9.3.5.2.9.4 1.2.6.3.3.5.6.7 1.1s.3.9.3 1.4c.1.4.1 1 .1 1.7l-2.3.3c0-.6 0-1-.1-1.4 0-.3-.1-.7-.3-1-.1-.3-.3-.6-.6-.7-.3-.1-.6-.2-1.1-.2-.7 0-1.3.2-1.7.6-.4.4-.5 1.1-.5 2.1 0 .9.2 1.6.5 1.9.3.4 1 .7 2 .9.7.2 1.3.3 1.7.5.4.2.9.5 1.3.9s.7.9.9 1.5c.2.6.3 1.3.3 2.2 0 1.8-.4 3.1-1.2 3.8-.8.8-2 1.2-3.7 1.2-.9 0-1.7-.1-2.3-.3-.6-.2-1-.5-1.4-1-.3-.5-.5-1-.7-1.6s-.2-1.3-.2-2.2l2.2-.3c0 1.2.2 2.1.5 2.6.6.6 1.2.8 2.1.8zM256.3.8V18H254V.8h2.3zm6.7 0l3.1 8.4 1.5 4.4-.1-4.7V.8h2.2V18h-2.6L264 9.6l-1.5-4.4V18h-2.2V.8h2.7zm10.7 0h7.6v2.1H276v5.3h4.5v2H276v5.7h5.6V18h-7.9V.8zm15.4 15.4c.9 0 1.6-.2 2-.6.4-.4.6-1.1.6-2.2 0-1-.2-1.7-.6-2.1-.4-.4-1.1-.7-2.2-1.1-.6-.2-1.1-.3-1.5-.5-.4-.2-.8-.5-1.2-.8-.4-.4-.7-.8-.9-1.4-.2-.5-.3-1.2-.3-2.1 0-1.7.3-2.9 1-3.7.7-.8 1.9-1.2 3.5-1.2.7 0 1.4.1 1.9.3.5.2.9.4 1.2.6.3.3.5.6.7 1.1s.3.9.3 1.4c.1.4.1 1 .1 1.7l-2.3.3c0-.6 0-1-.1-1.4 0-.3-.1-.7-.3-1-.1-.3-.3-.6-.6-.7-.3-.1-.6-.2-1.1-.2-.7 0-1.3.2-1.6.6-.4.4-.5 1.1-.5 2.1 0 .9.2 1.6.5 1.9.3.4 1 .7 2 .9.7.2 1.3.3 1.7.5.4.2.9.5 1.3.9s.7.9.9 1.5c.2.6.3 1.3.3 2.2 0 1.8-.4 3.1-1.2 3.8-.8.8-2 1.2-3.7 1.2-.9 0-1.7-.1-2.3-.3-.6-.2-1-.5-1.4-1-.3-.5-.5-1-.7-1.6s-.2-1.3-.2-2.2l2.2-.3c0 1.2.2 2.1.5 2.6.5.6 1.1.8 2 .8zm12.3 0c.9 0 1.6-.2 2-.6.4-.4.6-1.1.6-2.2 0-1-.2-1.7-.6-2.1-.4-.4-1.1-.7-2.2-1.1-.6-.2-1.1-.3-1.5-.5-.4-.2-.8-.5-1.2-.8-.4-.4-.7-.8-.9-1.4-.2-.6-.3-1.3-.3-2.1 0-1.7.3-2.9 1-3.7.7-.8 1.9-1.2 3.5-1.2.7 0 1.4.1 1.9.3.5.2.9.4 1.2.6.3.3.5.6.7 1.1s.3.9.3 1.4c.1.4.1 1 .1 1.7l-2.3.3c0-.6 0-1-.1-1.4 0-.3-.1-.7-.3-1-.1-.3-.3-.6-.6-.7-.3-.1-.6-.2-1.1-.2-.7 0-1.3.2-1.6.6-.4.4-.5 1.1-.5 2.1 0 .9.2 1.6.5 1.9.3.4 1 .7 2 .9.7.2 1.3.3 1.7.5.4.2.9.5 1.3.9s.7.9.9 1.5c.2.6.3 1.3.3 2.2 0 1.8-.4 3.1-1.2 3.8-.8.8-2 1.2-3.7 1.2-.9 0-1.7-.1-2.3-.3-.6-.2-1-.5-1.4-1-.3-.5-.5-1-.7-1.6s-.2-1.3-.2-2.2l2.2-.3c0 1.2.2 2.1.5 2.6.5.6 1.1.8 2 .8z"/></symbol><use xlink:href="#mobile-logo" y="892.68" width="307" height="19"/><symbol id="outline-orange" viewBox="0 0 495 503"><path fill="#BA6F2E" d="M247.5 503l-.4-.1L0 407.8V0h495v407.8l-.6.2-246.9 95zM2 406.5l245.5 94.4L493 406.5V2H2v404.5z"/></symbol><use xlink:href="#outline-orange" y="913.68" width="495" height="503"/><symbol id="outline" viewBox="0 0 292 297"><defs><filter x="-2.9%" y="-2.8%" width="110.8%" height="111.4%" filterUnits="objectBoundingBox" id="filter-2"><feOffset dx="10" dy="12" in="SourceAlpha" result="shadowOffsetOuter1"/><feGaussianBlur stdDeviation="2" in="shadowOffsetOuter1" result="shadowBlurOuter1"/><feComposite in="shadowBlurOuter1" in2="SourceAlpha" operator="out" result="shadowBlurOuter1"/><feColorMatrix values="0 0 0 0 0 0 0 0 0 0 0 0 0 0 0 0 0 0 0.0515455163 0" in="shadowBlurOuter1"/></filter><path id="path-1" d="M1042 1988h278v248.349L1181.61 2269 1042 2236.349z"/></defs><g id="Landing" stroke="none" stroke-width="1" fill="none" fill-rule="evenodd"><g id="About" transform="translate(-1042 -1988)" fill-rule="nonzero"><g id="Rectangle-2-Copy-3"><use fill="#000" filter="url(#filter-2)" xmlns:xlink="http://www.w3.org/1999/xlink" xlink:href="#path-1"/><path stroke="#C99700" stroke-width="6" d="M1045 1991v242.97l136.606 31.948L1317 2233.974V1991h-272z" stroke-linejoin="square" fill="#FFF" fill-rule="evenodd"/></g></g></g></symbol><use xlink:href="#outline" y="1418.68" width="292" height="297"/><symbol id="play-alt" viewBox="0 0 32 35"><g id="Landing" stroke="none" stroke-width="1" fill="none" fill-rule="evenodd"><g id="About" transform="translate(-200 -1022)" fill="#FFF"><g id="noun_play_1819838" transform="translate(200 1022)"><path d="M25.954 13.854C19.704 10.349 13.547 6.75 7.296 3.15c-7.482-4.356-6.25-5.02-6.25 3.6V28.25c0 8.618-1.232 7.955 6.25 3.599A1865.258 1865.258 0 0125.86 21.146c7.482-4.356 7.577-2.936.094-7.292z" id="Shape"/></g></g></g></symbol><use xlink:href="#play-alt" y="1717.68" width="32" height="35"/><symbol id="play" viewBox="0 0 32 32"><path d="M16 32c8.8 0 16-7.2 16-16S24.8 0 16 0 0 7.2 0 16s7.2 16 16 16zM12 9.5c0-.4.5-.7.8-.5l9.9 7c.4.2.4.7 0 .9l-9.9 7c-.4.2-.8 0-.8-.5V9.5z"/></symbol><use xlink:href="#play" y="1754.68" width="32" height="32"/><symbol id="plus-circle" viewBox="0 0 68 68"><style>.st0{fill:#c99700}</style><path class="st0" d="M34 68C15.3 68 0 52.7 0 34S15.3 0 34 0s34 15.3 34 34-15.3 34-34 34zm0-66C16.4 2 2 16.4 2 34s14.4 32 32 32 32-14.4 32-32S51.6 2 34 2z"/><path class="st0" d="M35.2 33V15.5h-2V33H15v2h18.2v18.5h2V35H53v-2z"/></symbol><use xlink:href="#plus-circle" y="1788.68" width="68" height="68"/><symbol id="plus" viewBox="0 0 24 24"><path d="M.4 11h23.1v2H.4z"/><path d="M11 .4h2v23.1h-2z"/></symbol><use xlink:href="#plus" y="1858.68" width="24" height="24"/><symbol id="quote-white" viewBox="0 0 49 31"><path fill="#fff" d="M20.2 31H0L10.5 0H24l-3.8 31zm25 0H25L35.5 0H49l-3.8 31z"/></symbol><use xlink:href="#quote-white" y="1884.68" width="49" height="31"/><symbol id="quote" viewBox="0 0 49 31"><path id="quote" d="M20.2 31H0L10.5 0H24l-3.8 31zm25 0H25L35.5 0H49l-3.8 31z"/></symbol><use xlink:href="#quote" y="1917.68" width="49" height="31"/><symbol id="ribbon" viewBox="0 0 153.2 167.4"><path fill="#FFF" d="M124.2 101.5c6.5-7.8 11.2-17.2 13.2-27.6l-3.8-.8c-5.3 27-29.3 46.7-56.9 46.7-32 0-58-26-58-58s26-58 58-58c31.4 0 56.9 24.6 57.9 56v2h3.9v-2.1c-.5-16.1-7.2-31.1-18.8-42.3C108.2 6.2 92.9 0 76.8 0 42.7 0 14.9 27.8 14.9 61.9c0 14.9 5.3 28.7 14.2 39.4L0 147.6l24.7-2.2 11.6 22 26.3-45.3c4.6 1.1 9.3 1.7 14.2 1.7 4.7 0 9.4-.5 13.8-1.6l26.3 45.2 11.6-22 24.7 2.2-29-46.1zm-87.8 57.6l-9.4-18-19.3 1.8 24.2-38.5c7.2 7.7 16.4 13.5 26.7 16.6l-22.2 38.1zm89.8-18l-9.4 18-22.1-38c10.3-3.1 19.5-8.8 26.8-16.5l24 38.3-19.3-1.8z"/><path fill="#0DA7E1" d="M77.8 35.8l5.3 16.3c.5 1.5 1.9 2.5 3.4 2.5h17.2L89.8 64.7c-1.3.9-1.8 2.5-1.3 4L93.8 85 79.9 75c-.6-.5-1.4-.7-2.1-.7-.7 0-1.5.2-2.1.7L61.8 85.1l5.3-16.3c.5-1.5 0-3.1-1.3-4L51.9 54.6h17.2c1.6 0 2.9-1 3.4-2.5l5.3-16.3m0-11.6L69.1 51H40.9l22.8 16.6L55 94.4l22.8-16.6 22.8 16.6-8.7-26.8L114.7 51H86.5l-8.7-26.8z"/></symbol><use xlink:href="#ribbon" y="1950.68" width="153.2" height="167.4"/><symbol id="search" viewBox="0 0 20 20"><path d="M20 18.7l-6-6c1.1-1.4 1.7-3.1 1.7-4.8 0-2.1-.8-4-2.3-5.5C11.9.8 9.9 0 7.8 0s-4 .8-5.5 2.3C.8 3.8 0 5.7 0 7.8s.8 4 2.3 5.5c1.5 1.5 3.4 2.3 5.5 2.3 1.8 0 3.5-.6 4.8-1.7l6 6 1.4-1.2zM3.6 12.1c-2.3-2.3-2.3-6.2 0-8.5 1.1-1.1 2.6-1.8 4.2-1.8s3.1.6 4.2 1.8c2.3 2.3 2.3 6.2 0 8.5-1.1 1.1-2.6 1.8-4.2 1.8s-3.1-.7-4.2-1.8z"/></symbol><use xlink:href="#search" y="2120.08" width="20" height="20"/><symbol id="twitter" viewBox="0 0 21 17"><path d="M20.5 1.9c-.7.3-1.5.5-2.4.6.8-.5 1.5-1.3 1.8-2.3-.8.5-1.7.8-2.6 1-.8-.8-1.8-1.3-3-1.3-2.3 0-4.1 1.8-4.1 4.1 0 .3 0 .6.1.9-3.4 0-6.4-1.7-8.4-4.1-.4.6-.6 1.3-.6 2 0 1.4.7 2.7 1.8 3.4-.6 0-1.2-.2-1.8-.5v.1c0 2 1.4 3.6 3.3 4-.3.1-.7.1-1.1.1-.3 0-.5 0-.8-.1.5 1.6 2 2.8 3.8 2.8-1.4 1.1-3.2 1.8-5.1 1.8-.3 0-.7 0-1-.1 1.8 1.2 4 1.8 6.3 1.8 7.5 0 11.7-6.3 11.7-11.7v-.5c.9-.4 1.5-1.2 2.1-2z"/></symbol><use xlink:href="#twitter" y="2142.08" width="21" height="17"/><symbol id="upward" viewBox="0 0 152.5 135"><path fill="#FFF" d="M106.7 978.5V1083h-13v-69.7H58.8v69.7H45.7v-37.1H10.9v37.1H0v4.4h152.5v-4.4h-41.4V982.8h26.1v87.1h4.4v-91.5H106.7zm-43.5 39.2h26.1v65.3H63.2v-65.3zm-48 32.7h26.1v32.7H15.2v-32.7z" transform="translate(0 -952.362)"/><path fill="#C99700" d="M69.8 0v4.4h20.4L11.7 74.6l2.9 3.2L93.7 6.9v21.4h4.4V0h-2.2z"/></symbol><use xlink:href="#upward" y="2161.08" width="152.5" height="135"/><symbol id="youtube" viewBox="0 0 21 15"><path d="M20.5 3s-.2-1.4-.8-2c-.8-.8-1.6-.8-2-.8C15 0 10.8 0 10.8 0s-4.2 0-7 .2c-.4 0-1.2.1-2 .8-.7.7-.8 2-.8 2S.8 4.7.8 6.3v1.5C.8 9.4 1 11 1 11s.2 1.4.8 2c.8.8 1.8.8 2.2.9 1.6.2 6.8.2 6.8.2s4.2 0 7-.2c.4 0 1.2-.1 2-.8.6-.6.8-2 .8-2s.2-1.6.2-3.2V6.3c-.1-1.6-.3-3.3-.3-3.3zM8.7 9.6V4l5.4 2.8-5.4 2.8z"/></symbol><use xlink:href="#youtube" y="2298.08" width="21" height="15"/></svg>